<?xml version="1.0" standalone="no"?>
<!DOCTYPE svg PUBLIC "-//W3C//DTD SVG 20010904//EN"
 "http://www.w3.org/TR/2001/REC-SVG-20010904/DTD/svg10.dtd">
<svg version="1.0" xmlns="http://www.w3.org/2000/svg"
 width="914.000000pt" height="914.000000pt" viewBox="0 0 914.000000 914.000000"
 preserveAspectRatio="xMidYMid meet">
<metadata>
Created by potrace 1.11, written by Peter Selinger 2001-2013
</metadata>
<g transform="translate(0.000000,914.000000) scale(0.100000,-0.100000)"
fill="#000000" stroke="none">
<path d="M4318 9135 c-2 -1 -46 -5 -99 -9 -53 -4 -104 -8 -115 -10 -10 -2 -52
-7 -93 -10 -41 -4 -77 -9 -80 -10 -3 -2 -33 -7 -66 -11 -32 -3 -62 -8 -65 -10
-3 -2 -23 -6 -45 -9 -187 -29 -425 -92 -686 -181 -450 -154 -918 -407 -1299
-704 -270 -210 -551 -485 -750 -734 -8 -11 -20 -24 -25 -31 -51 -55 -274 -375
-334 -478 -10 -18 -40 -69 -66 -113 -125 -215 -278 -562 -369 -839 -41 -127
-113 -393 -132 -491 -4 -22 -8 -42 -9 -45 0 -3 -4 -26 -8 -51 -4 -25 -10 -57
-12 -70 -13 -77 -27 -170 -31 -209 -2 -25 -6 -58 -9 -75 -26 -165 -26 -773 0
-945 2 -14 7 -54 10 -90 4 -36 9 -72 10 -80 3 -18 15 -94 21 -135 4 -30 9 -57
20 -105 3 -14 7 -36 10 -50 105 -533 343 -1103 663 -1590 41 -63 79 -119 83
-125 5 -5 42 -55 84 -110 223 -298 502 -582 819 -836 98 -79 300 -222 387
-274 9 -5 48 -29 85 -51 217 -132 532 -285 743 -359 41 -15 84 -31 95 -36 71
-30 360 -113 520 -149 161 -35 290 -57 515 -85 214 -26 817 -27 956 -1 11 2
46 7 79 10 33 4 71 9 85 11 72 12 268 46 290 50 14 4 36 8 50 11 181 35 597
167 780 246 318 138 540 259 805 437 72 48 239 170 290 213 317 261 574 525
790 813 184 246 338 498 470 771 41 85 75 157 75 160 0 3 11 30 25 60 14 30
25 57 25 60 0 3 7 20 15 37 28 61 143 409 160 487 2 8 11 44 20 80 9 36 19 74
21 84 2 11 12 63 23 115 11 53 22 110 25 126 2 17 8 50 12 75 4 25 8 52 9 60
9 67 17 132 20 170 2 25 8 83 12 130 15 168 8 678 -12 815 -2 17 -9 71 -15
120 -16 126 -16 125 -44 271 -81 423 -221 829 -421 1219 -40 77 -81 154 -91
172 -10 17 -34 57 -53 90 -53 91 -158 249 -235 353 -63 86 -182 237 -196 250
-3 3 -36 41 -75 85 -74 85 -254 267 -345 350 -422 384 -950 704 -1475 897
-169 62 -455 148 -574 173 -119 25 -274 55 -306 59 -22 2 -69 9 -105 15 -36 6
-100 13 -143 16 -43 4 -88 9 -100 12 -23 5 -613 13 -619 8z"/>
</g>
</svg>
