<?xml version="1.0" encoding="UTF-8"?>
<svg width="2000px" height="1840px" viewBox="0 0 2000 1840" version="1.1" xmlns="http://www.w3.org/2000/svg" xmlns:xlink="http://www.w3.org/1999/xlink">
    <!-- Generator: Sketch Beta 51.3 (57544) - http://www.bohemiancoding.com/sketch -->
    <title>Artboard</title>
    <desc>Created with Sketch Beta.</desc>
    <defs></defs>
    <g id="Artboard" stroke="none" stroke-width="1" fill="none" fill-rule="evenodd">
        <g id="pattern" transform="translate(180.000000, 164.000000)">
            <g id="Group-3">
                <g id="Group-2" transform="translate(970.000000, 872.000000)">
                    <g id="Group" transform="translate(485.000000, 412.000000)">
                        <path d="M138.213297,112.692055 L146.656707,107.817106 C144.433218,103.960483 142.500572,99.941663 140.871114,95.7885314 C129.121251,65.8588797 134.216551,31.940359 154.23189,6.77266742 L146.607302,0.688596589 C143.521206,4.56849244 140.733293,8.66161564 138.275727,12.9253441 C120.458884,43.7905807 120.438074,81.8101052 138.213297,112.692054 Z" id="Segment-20" stroke="#FFFFFF" stroke-width="0.25" fill="#F2641A" transform="translate(139.589969, 56.687853) rotate(28.000000) translate(-139.589969, -56.687853) "></path>
                        <path d="M117,107.914882 L117,211.914882" id="Line-2" stroke="#F2641A" stroke-width="10" stroke-linecap="square"></path>
                        <path d="M44.0333588,112.692055 L52.4767689,107.817106 C50.2532805,103.960483 48.3206347,99.941663 46.6911763,95.7885314 C34.9413131,65.8588797 40.0366132,31.940359 60.0519526,6.77266742 L52.4273639,0.688596589 C49.3412684,4.56849244 46.5533549,8.66161564 44.0957892,12.9253441 C26.278946,43.7905807 26.2581361,81.8101052 44.0333594,112.692054 Z" id="Segment-20" stroke="#FFFFFF" stroke-width="0.25" fill="#F2641A" transform="translate(45.410031, 56.687853) scale(-1, 1) rotate(28.000000) translate(-45.410031, -56.687853) "></path>
                        <path d="M0,104.208333 L185,104.208333" id="Line" stroke="#F2641A" stroke-width="10" stroke-linecap="square" transform="translate(92.500000, 104.050000) scale(-1, 1) translate(-92.500000, -104.050000) "></path>
                        <path d="M68,107.914882 L68,211.914882" id="Line-2" stroke="#F2641A" stroke-width="10" stroke-linecap="square" transform="translate(68.000000, 159.914882) scale(-1, 1) translate(-68.000000, -159.914882) "></path>
                    </g>
                    <g id="Group" transform="translate(0.000000, 412.000000)">
                        <path d="M138.213297,112.692055 L146.656707,107.817106 C144.433218,103.960483 142.500572,99.941663 140.871114,95.7885314 C129.121251,65.8588797 134.216551,31.940359 154.23189,6.77266742 L146.607302,0.688596589 C143.521206,4.56849244 140.733293,8.66161564 138.275727,12.9253441 C120.458884,43.7905807 120.438074,81.8101052 138.213297,112.692054 Z" id="Segment-20" stroke="#F2641A" stroke-width="0.25" fill="#F6AE2C" transform="translate(139.589969, 56.687853) rotate(28.000000) translate(-139.589969, -56.687853) "></path>
                        <path d="M117,107.914882 L117,211.914882" id="Line-2" stroke="#F6AE2C" stroke-width="10" stroke-linecap="square"></path>
                        <path d="M44.0333588,112.692055 L52.4767689,107.817106 C50.2532805,103.960483 48.3206347,99.941663 46.6911763,95.7885314 C34.9413131,65.8588797 40.0366132,31.940359 60.0519526,6.77266742 L52.4273639,0.688596589 C49.3412684,4.56849244 46.5533549,8.66161564 44.0957892,12.9253441 C26.278946,43.7905807 26.2581361,81.8101052 44.0333594,112.692054 Z" id="Segment-20" stroke="#F2641A" stroke-width="0.25" fill="#F6AE2C" transform="translate(45.410031, 56.687853) scale(-1, 1) rotate(28.000000) translate(-45.410031, -56.687853) "></path>
                        <path d="M0,104.208333 L185,104.208333" id="Line" stroke="#F6AE2C" stroke-width="10" stroke-linecap="square" transform="translate(92.500000, 104.050000) scale(-1, 1) translate(-92.500000, -104.050000) "></path>
                        <path d="M68,107.914882 L68,211.914882" id="Line-2" stroke="#F6AE2C" stroke-width="10" stroke-linecap="square" transform="translate(68.000000, 159.914882) scale(-1, 1) translate(-68.000000, -159.914882) "></path>
                    </g>
                    <g id="Group" transform="translate(485.000000, 0.000000)" fill="#F6AE2C">
                        <path d="M138.213297,112.692055 L146.656707,107.817106 C144.433218,103.960483 142.500572,99.941663 140.871114,95.7885314 C129.121251,65.8588797 134.216551,31.940359 154.23189,6.77266742 L146.607302,0.688596589 C143.521206,4.56849244 140.733293,8.66161564 138.275727,12.9253441 C120.458884,43.7905807 120.438074,81.8101052 138.213297,112.692054 Z" id="Segment-20" stroke="#FFFFFF" stroke-width="0.25" transform="translate(139.589969, 56.687853) rotate(28.000000) translate(-139.589969, -56.687853) "></path>
                        <path d="M117,107.914882 L117,211.914882" id="Line-2" stroke="#F6AE2C" stroke-width="10" stroke-linecap="square"></path>
                        <path d="M44.0333588,112.692055 L52.4767689,107.817106 C50.2532805,103.960483 48.3206347,99.941663 46.6911763,95.7885314 C34.9413131,65.8588797 40.0366132,31.940359 60.0519526,6.77266742 L52.4273639,0.688596589 C49.3412684,4.56849244 46.5533549,8.66161564 44.0957892,12.9253441 C26.278946,43.7905807 26.2581361,81.8101052 44.0333594,112.692054 Z" id="Segment-20" stroke="#FFFFFF" stroke-width="0.25" transform="translate(45.410031, 56.687853) scale(-1, 1) rotate(28.000000) translate(-45.410031, -56.687853) "></path>
                        <path d="M0,104.208333 L185,104.208333" id="Line" stroke="#F6AE2C" stroke-width="10" stroke-linecap="square" transform="translate(92.500000, 104.050000) scale(-1, 1) translate(-92.500000, -104.050000) "></path>
                        <path d="M68,107.914882 L68,211.914882" id="Line-2" stroke="#F6AE2C" stroke-width="10" stroke-linecap="square" transform="translate(68.000000, 159.914882) scale(-1, 1) translate(-68.000000, -159.914882) "></path>
                    </g>
                    <g id="Group" fill="#758E4F">
                        <path d="M138.213297,112.692055 L146.656707,107.817106 C144.433218,103.960483 142.500572,99.941663 140.871114,95.7885314 C129.121251,65.8588797 134.216551,31.940359 154.23189,6.77266742 L146.607302,0.688596589 C143.521206,4.56849244 140.733293,8.66161564 138.275727,12.9253441 C120.458884,43.7905807 120.438074,81.8101052 138.213297,112.692054 Z" id="Segment-20" stroke="#FFFFFF" stroke-width="0.25" transform="translate(139.589969, 56.687853) rotate(28.000000) translate(-139.589969, -56.687853) "></path>
                        <path d="M117,107.914882 L117,211.914882" id="Line-2" stroke="#758E4F" stroke-width="10" stroke-linecap="square"></path>
                        <path d="M44.0333588,112.692055 L52.4767689,107.817106 C50.2532805,103.960483 48.3206347,99.941663 46.6911763,95.7885314 C34.9413131,65.8588797 40.0366132,31.940359 60.0519526,6.77266742 L52.4273639,0.688596589 C49.3412684,4.56849244 46.5533549,8.66161564 44.0957892,12.9253441 C26.278946,43.7905807 26.2581361,81.8101052 44.0333594,112.692054 Z" id="Segment-20" stroke="#FFFFFF" stroke-width="0.25" transform="translate(45.410031, 56.687853) scale(-1, 1) rotate(28.000000) translate(-45.410031, -56.687853) "></path>
                        <path d="M0,104.208333 L185,104.208333" id="Line" stroke="#758E4F" stroke-width="10" stroke-linecap="square" transform="translate(92.500000, 104.050000) scale(-1, 1) translate(-92.500000, -104.050000) "></path>
                        <path d="M68,107.914882 L68,211.914882" id="Line-2" stroke="#758E4F" stroke-width="10" stroke-linecap="square" transform="translate(68.000000, 159.914882) scale(-1, 1) translate(-68.000000, -159.914882) "></path>
                    </g>
                </g>
                <g id="Group-2" transform="translate(0.000000, 872.000000)">
                    <g id="Group" transform="translate(485.000000, 412.000000)">
                        <path d="M138.213297,112.692055 L146.656707,107.817106 C144.433218,103.960483 142.500572,99.941663 140.871114,95.7885314 C129.121251,65.8588797 134.216551,31.940359 154.23189,6.77266742 L146.607302,0.688596589 C143.521206,4.56849244 140.733293,8.66161564 138.275727,12.9253441 C120.458884,43.7905807 120.438074,81.8101052 138.213297,112.692054 Z" id="Segment-20" stroke="#FFFFFF" stroke-width="0.25" fill="#758E4F" transform="translate(139.589969, 56.687853) rotate(28.000000) translate(-139.589969, -56.687853) "></path>
                        <path d="M117,107.914882 L117,211.914882" id="Line-2" stroke="#758E4F" stroke-width="10" stroke-linecap="square"></path>
                        <path d="M44.0333588,112.692055 L52.4767689,107.817106 C50.2532805,103.960483 48.3206347,99.941663 46.6911763,95.7885314 C34.9413131,65.8588797 40.0366132,31.940359 60.0519526,6.77266742 L52.4273639,0.688596589 C49.3412684,4.56849244 46.5533549,8.66161564 44.0957892,12.9253441 C26.278946,43.7905807 26.2581361,81.8101052 44.0333594,112.692054 Z" id="Segment-20" stroke="#FFFFFF" stroke-width="0.25" fill="#758E4F" transform="translate(45.410031, 56.687853) scale(-1, 1) rotate(28.000000) translate(-45.410031, -56.687853) "></path>
                        <path d="M0,104.208333 L185,104.208333" id="Line" stroke="#758E4F" stroke-width="10" stroke-linecap="square" transform="translate(92.500000, 104.050000) scale(-1, 1) translate(-92.500000, -104.050000) "></path>
                        <path d="M68,107.914882 L68,211.914882" id="Line-2" stroke="#758E4F" stroke-width="10" stroke-linecap="square" transform="translate(68.000000, 159.914882) scale(-1, 1) translate(-68.000000, -159.914882) "></path>
                    </g>
                    <g id="Group" transform="translate(0.000000, 412.000000)" stroke="#33658A">
                        <path d="M138.213297,112.692055 L146.656707,107.817106 C144.433218,103.960483 142.500572,99.941663 140.871114,95.7885314 C129.121251,65.8588797 134.216551,31.940359 154.23189,6.77266742 L146.607302,0.688596589 C143.521206,4.56849244 140.733293,8.66161564 138.275727,12.9253441 C120.458884,43.7905807 120.438074,81.8101052 138.213297,112.692054 Z" id="Segment-20" stroke-width="0.25" fill="#33658A" transform="translate(139.589969, 56.687853) rotate(28.000000) translate(-139.589969, -56.687853) "></path>
                        <path d="M117,107.914882 L117,211.914882" id="Line-2" stroke-width="10" stroke-linecap="square"></path>
                        <path d="M44.0333588,112.692055 L52.4767689,107.817106 C50.2532805,103.960483 48.3206347,99.941663 46.6911763,95.7885314 C34.9413131,65.8588797 40.0366132,31.940359 60.0519526,6.77266742 L52.4273639,0.688596589 C49.3412684,4.56849244 46.5533549,8.66161564 44.0957892,12.9253441 C26.278946,43.7905807 26.2581361,81.8101052 44.0333594,112.692054 Z" id="Segment-20" stroke-width="0.25" fill="#33658A" transform="translate(45.410031, 56.687853) scale(-1, 1) rotate(28.000000) translate(-45.410031, -56.687853) "></path>
                        <path d="M0,104.208333 L185,104.208333" id="Line" stroke-width="10" stroke-linecap="square" transform="translate(92.500000, 104.050000) scale(-1, 1) translate(-92.500000, -104.050000) "></path>
                        <path d="M68,107.914882 L68,211.914882" id="Line-2" stroke-width="10" stroke-linecap="square" transform="translate(68.000000, 159.914882) scale(-1, 1) translate(-68.000000, -159.914882) "></path>
                    </g>
                    <g id="Group" transform="translate(485.000000, 0.000000)" stroke="#33658A">
                        <path d="M138.213297,112.692055 L146.656707,107.817106 C144.433218,103.960483 142.500572,99.941663 140.871114,95.7885314 C129.121251,65.8588797 134.216551,31.940359 154.23189,6.77266742 L146.607302,0.688596589 C143.521206,4.56849244 140.733293,8.66161564 138.275727,12.9253441 C120.458884,43.7905807 120.438074,81.8101052 138.213297,112.692054 Z" id="Segment-20" stroke-width="0.25" fill="#33658A" transform="translate(139.589969, 56.687853) rotate(28.000000) translate(-139.589969, -56.687853) "></path>
                        <path d="M117,107.914882 L117,211.914882" id="Line-2" stroke-width="10" fill="#F6AE2C" stroke-linecap="square"></path>
                        <path d="M44.0333588,112.692055 L52.4767689,107.817106 C50.2532805,103.960483 48.3206347,99.941663 46.6911763,95.7885314 C34.9413131,65.8588797 40.0366132,31.940359 60.0519526,6.77266742 L52.4273639,0.688596589 C49.3412684,4.56849244 46.5533549,8.66161564 44.0957892,12.9253441 C26.278946,43.7905807 26.2581361,81.8101052 44.0333594,112.692054 Z" id="Segment-20" stroke-width="0.25" fill="#33658A" transform="translate(45.410031, 56.687853) scale(-1, 1) rotate(28.000000) translate(-45.410031, -56.687853) "></path>
                        <path d="M0,104.208333 L185,104.208333" id="Line" stroke-width="10" fill="#F6AE2C" stroke-linecap="square" transform="translate(92.500000, 104.050000) scale(-1, 1) translate(-92.500000, -104.050000) "></path>
                        <path d="M68,107.914882 L68,211.914882" id="Line-2" stroke-width="10" fill="#F6AE2C" stroke-linecap="square" transform="translate(68.000000, 159.914882) scale(-1, 1) translate(-68.000000, -159.914882) "></path>
                    </g>
                    <g id="Group">
                        <path d="M138.213297,112.692055 L146.656707,107.817106 C144.433218,103.960483 142.500572,99.941663 140.871114,95.7885314 C129.121251,65.8588797 134.216551,31.940359 154.23189,6.77266742 L146.607302,0.688596589 C143.521206,4.56849244 140.733293,8.66161564 138.275727,12.9253441 C120.458884,43.7905807 120.438074,81.8101052 138.213297,112.692054 Z" id="Segment-20" stroke="#FFFFFF" stroke-width="0.25" fill="#F2641A" transform="translate(139.589969, 56.687853) rotate(28.000000) translate(-139.589969, -56.687853) "></path>
                        <path d="M117,107.914882 L117,211.914882" id="Line-2" stroke="#F2641A" stroke-width="10" fill="#758E4F" stroke-linecap="square"></path>
                        <path d="M44.0333588,112.692055 L52.4767689,107.817106 C50.2532805,103.960483 48.3206347,99.941663 46.6911763,95.7885314 C34.9413131,65.8588797 40.0366132,31.940359 60.0519526,6.77266742 L52.4273639,0.688596589 C49.3412684,4.56849244 46.5533549,8.66161564 44.0957892,12.9253441 C26.278946,43.7905807 26.2581361,81.8101052 44.0333594,112.692054 Z" id="Segment-20" stroke="#FFFFFF" stroke-width="0.25" fill="#F2641A" transform="translate(45.410031, 56.687853) scale(-1, 1) rotate(28.000000) translate(-45.410031, -56.687853) "></path>
                        <path d="M0,104.208333 L185,104.208333" id="Line" stroke="#F2641A" stroke-width="10" fill="#758E4F" stroke-linecap="square" transform="translate(92.500000, 104.050000) scale(-1, 1) translate(-92.500000, -104.050000) "></path>
                        <path d="M68,107.914882 L68,211.914882" id="Line-2" stroke="#F2641A" stroke-width="10" fill="#758E4F" stroke-linecap="square" transform="translate(68.000000, 159.914882) scale(-1, 1) translate(-68.000000, -159.914882) "></path>
                    </g>
                </g>
                <g id="Group-2" transform="translate(970.000000, 0.000000)">
                    <g id="Group" transform="translate(485.000000, 412.000000)">
                        <path d="M138.213297,112.692055 L146.656707,107.817106 C144.433218,103.960483 142.500572,99.941663 140.871114,95.7885314 C129.121251,65.8588797 134.216551,31.940359 154.23189,6.77266742 L146.607302,0.688596589 C143.521206,4.56849244 140.733293,8.66161564 138.275727,12.9253441 C120.458884,43.7905807 120.438074,81.8101052 138.213297,112.692054 Z" id="Segment-20" stroke="#FFFFFF" stroke-width="0.25" fill="#758E4F" transform="translate(139.589969, 56.687853) rotate(28.000000) translate(-139.589969, -56.687853) "></path>
                        <path d="M117,107.914882 L117,211.914882" id="Line-2" stroke="#758E4F" stroke-width="10" stroke-linecap="square"></path>
                        <path d="M44.0333588,112.692055 L52.4767689,107.817106 C50.2532805,103.960483 48.3206347,99.941663 46.6911763,95.7885314 C34.9413131,65.8588797 40.0366132,31.940359 60.0519526,6.77266742 L52.4273639,0.688596589 C49.3412684,4.56849244 46.5533549,8.66161564 44.0957892,12.9253441 C26.278946,43.7905807 26.2581361,81.8101052 44.0333594,112.692054 Z" id="Segment-20" stroke="#FFFFFF" stroke-width="0.25" fill="#758E4F" transform="translate(45.410031, 56.687853) scale(-1, 1) rotate(28.000000) translate(-45.410031, -56.687853) "></path>
                        <path d="M0,104.208333 L185,104.208333" id="Line" stroke="#758E4F" stroke-width="10" stroke-linecap="square" transform="translate(92.500000, 104.050000) scale(-1, 1) translate(-92.500000, -104.050000) "></path>
                        <path d="M68,107.914882 L68,211.914882" id="Line-2" stroke="#758E4F" stroke-width="10" stroke-linecap="square" transform="translate(68.000000, 159.914882) scale(-1, 1) translate(-68.000000, -159.914882) "></path>
                    </g>
                    <g id="Group" transform="translate(0.000000, 412.000000)">
                        <path d="M138.213297,112.692055 L146.656707,107.817106 C144.433218,103.960483 142.500572,99.941663 140.871114,95.7885314 C129.121251,65.8588797 134.216551,31.940359 154.23189,6.77266742 L146.607302,0.688596589 C143.521206,4.56849244 140.733293,8.66161564 138.275727,12.9253441 C120.458884,43.7905807 120.438074,81.8101052 138.213297,112.692054 Z" id="Segment-20" stroke="#F2641A" stroke-width="0.25" fill="#33658A" transform="translate(139.589969, 56.687853) rotate(28.000000) translate(-139.589969, -56.687853) "></path>
                        <path d="M117,107.914882 L117,211.914882" id="Line-2" stroke="#33658A" stroke-width="10" stroke-linecap="square"></path>
                        <path d="M44.0333588,112.692055 L52.4767689,107.817106 C50.2532805,103.960483 48.3206347,99.941663 46.6911763,95.7885314 C34.9413131,65.8588797 40.0366132,31.940359 60.0519526,6.77266742 L52.4273639,0.688596589 C49.3412684,4.56849244 46.5533549,8.66161564 44.0957892,12.9253441 C26.278946,43.7905807 26.2581361,81.8101052 44.0333594,112.692054 Z" id="Segment-20" stroke="#F2641A" stroke-width="0.25" fill="#33658A" transform="translate(45.410031, 56.687853) scale(-1, 1) rotate(28.000000) translate(-45.410031, -56.687853) "></path>
                        <path d="M0,104.208333 L185,104.208333" id="Line" stroke="#33658A" stroke-width="10" stroke-linecap="square" transform="translate(92.500000, 104.050000) scale(-1, 1) translate(-92.500000, -104.050000) "></path>
                        <path d="M68,107.914882 L68,211.914882" id="Line-2" stroke="#33658A" stroke-width="10" stroke-linecap="square" transform="translate(68.000000, 159.914882) scale(-1, 1) translate(-68.000000, -159.914882) "></path>
                    </g>
                    <g id="Group" transform="translate(485.000000, 0.000000)">
                        <path d="M138.213297,112.692055 L146.656707,107.817106 C144.433218,103.960483 142.500572,99.941663 140.871114,95.7885314 C129.121251,65.8588797 134.216551,31.940359 154.23189,6.77266742 L146.607302,0.688596589 C143.521206,4.56849244 140.733293,8.66161564 138.275727,12.9253441 C120.458884,43.7905807 120.438074,81.8101052 138.213297,112.692054 Z" id="Segment-20" stroke="#FFFFFF" stroke-width="0.25" fill="#33658A" transform="translate(139.589969, 56.687853) rotate(28.000000) translate(-139.589969, -56.687853) "></path>
                        <path d="M117,107.914882 L117,211.914882" id="Line-2" stroke="#33658A" stroke-width="10" fill="#F6AE2C" stroke-linecap="square"></path>
                        <path d="M44.0333588,112.692055 L52.4767689,107.817106 C50.2532805,103.960483 48.3206347,99.941663 46.6911763,95.7885314 C34.9413131,65.8588797 40.0366132,31.940359 60.0519526,6.77266742 L52.4273639,0.688596589 C49.3412684,4.56849244 46.5533549,8.66161564 44.0957892,12.9253441 C26.278946,43.7905807 26.2581361,81.8101052 44.0333594,112.692054 Z" id="Segment-20" stroke="#FFFFFF" stroke-width="0.25" fill="#33658A" transform="translate(45.410031, 56.687853) scale(-1, 1) rotate(28.000000) translate(-45.410031, -56.687853) "></path>
                        <path d="M0,104.208333 L185,104.208333" id="Line" stroke="#33658A" stroke-width="10" fill="#F6AE2C" stroke-linecap="square" transform="translate(92.500000, 104.050000) scale(-1, 1) translate(-92.500000, -104.050000) "></path>
                        <path d="M68,107.914882 L68,211.914882" id="Line-2" stroke="#33658A" stroke-width="10" fill="#F6AE2C" stroke-linecap="square" transform="translate(68.000000, 159.914882) scale(-1, 1) translate(-68.000000, -159.914882) "></path>
                    </g>
                    <g id="Group" stroke="#F2641A">
                        <path d="M138.213297,112.692055 L146.656707,107.817106 C144.433218,103.960483 142.500572,99.941663 140.871114,95.7885314 C129.121251,65.8588797 134.216551,31.940359 154.23189,6.77266742 L146.607302,0.688596589 C143.521206,4.56849244 140.733293,8.66161564 138.275727,12.9253441 C120.458884,43.7905807 120.438074,81.8101052 138.213297,112.692054 Z" id="Segment-20" stroke-width="0.25" fill="#F2641A" transform="translate(139.589969, 56.687853) rotate(28.000000) translate(-139.589969, -56.687853) "></path>
                        <path d="M117,107.914882 L117,211.914882" id="Line-2" stroke-width="10" fill="#758E4F" stroke-linecap="square"></path>
                        <path d="M44.0333588,112.692055 L52.4767689,107.817106 C50.2532805,103.960483 48.3206347,99.941663 46.6911763,95.7885314 C34.9413131,65.8588797 40.0366132,31.940359 60.0519526,6.77266742 L52.4273639,0.688596589 C49.3412684,4.56849244 46.5533549,8.66161564 44.0957892,12.9253441 C26.278946,43.7905807 26.2581361,81.8101052 44.0333594,112.692054 Z" id="Segment-20" stroke-width="0.25" fill="#F2641A" transform="translate(45.410031, 56.687853) scale(-1, 1) rotate(28.000000) translate(-45.410031, -56.687853) "></path>
                        <path d="M0,104.208333 L185,104.208333" id="Line" stroke-width="10" fill="#758E4F" stroke-linecap="square" transform="translate(92.500000, 104.050000) scale(-1, 1) translate(-92.500000, -104.050000) "></path>
                        <path d="M68,107.914882 L68,211.914882" id="Line-2" stroke-width="10" fill="#758E4F" stroke-linecap="square" transform="translate(68.000000, 159.914882) scale(-1, 1) translate(-68.000000, -159.914882) "></path>
                    </g>
                </g>
                <g id="Group-2">
                    <g id="Group" transform="translate(485.000000, 412.000000)" stroke="#F2641A">
                        <path d="M138.213297,112.692055 L146.656707,107.817106 C144.433218,103.960483 142.500572,99.941663 140.871114,95.7885314 C129.121251,65.8588797 134.216551,31.940359 154.23189,6.77266742 L146.607302,0.688596589 C143.521206,4.56849244 140.733293,8.66161564 138.275727,12.9253441 C120.458884,43.7905807 120.438074,81.8101052 138.213297,112.692054 Z" id="Segment-20" stroke-width="0.25" fill="#F2641A" transform="translate(139.589969, 56.687853) rotate(28.000000) translate(-139.589969, -56.687853) "></path>
                        <path d="M117,107.914882 L117,211.914882" id="Line-2" stroke-width="10" stroke-linecap="square"></path>
                        <path d="M44.0333588,112.692055 L52.4767689,107.817106 C50.2532805,103.960483 48.3206347,99.941663 46.6911763,95.7885314 C34.9413131,65.8588797 40.0366132,31.940359 60.0519526,6.77266742 L52.4273639,0.688596589 C49.3412684,4.56849244 46.5533549,8.66161564 44.0957892,12.9253441 C26.278946,43.7905807 26.2581361,81.8101052 44.0333594,112.692054 Z" id="Segment-20" stroke-width="0.25" fill="#F2641A" transform="translate(45.410031, 56.687853) scale(-1, 1) rotate(28.000000) translate(-45.410031, -56.687853) "></path>
                        <path d="M0,104.208333 L185,104.208333" id="Line" stroke-width="10" stroke-linecap="square" transform="translate(92.500000, 104.050000) scale(-1, 1) translate(-92.500000, -104.050000) "></path>
                        <path d="M68,107.914882 L68,211.914882" id="Line-2" stroke-width="10" stroke-linecap="square" transform="translate(68.000000, 159.914882) scale(-1, 1) translate(-68.000000, -159.914882) "></path>
                    </g>
                    <g id="Group" transform="translate(0.000000, 412.000000)">
                        <path d="M138.213297,112.692055 L146.656707,107.817106 C144.433218,103.960483 142.500572,99.941663 140.871114,95.7885314 C129.121251,65.8588797 134.216551,31.940359 154.23189,6.77266742 L146.607302,0.688596589 C143.521206,4.56849244 140.733293,8.66161564 138.275727,12.9253441 C120.458884,43.7905807 120.438074,81.8101052 138.213297,112.692054 Z" id="Segment-20" stroke="#F2641A" stroke-width="0.25" fill="#F6AE2C" transform="translate(139.589969, 56.687853) rotate(28.000000) translate(-139.589969, -56.687853) "></path>
                        <path d="M117,107.914882 L117,211.914882" id="Line-2" stroke="#F6AE2C" stroke-width="10" stroke-linecap="square"></path>
                        <path d="M44.0333588,112.692055 L52.4767689,107.817106 C50.2532805,103.960483 48.3206347,99.941663 46.6911763,95.7885314 C34.9413131,65.8588797 40.0366132,31.940359 60.0519526,6.77266742 L52.4273639,0.688596589 C49.3412684,4.56849244 46.5533549,8.66161564 44.0957892,12.9253441 C26.278946,43.7905807 26.2581361,81.8101052 44.0333594,112.692054 Z" id="Segment-20" stroke="#F2641A" stroke-width="0.25" fill="#F6AE2C" transform="translate(45.410031, 56.687853) scale(-1, 1) rotate(28.000000) translate(-45.410031, -56.687853) "></path>
                        <path d="M0,104.208333 L185,104.208333" id="Line" stroke="#F6AE2C" stroke-width="10" stroke-linecap="square" transform="translate(92.500000, 104.050000) scale(-1, 1) translate(-92.500000, -104.050000) "></path>
                        <path d="M68,107.914882 L68,211.914882" id="Line-2" stroke="#F6AE2C" stroke-width="10" stroke-linecap="square" transform="translate(68.000000, 159.914882) scale(-1, 1) translate(-68.000000, -159.914882) "></path>
                    </g>
                    <g id="Group" transform="translate(485.000000, 0.000000)" fill="#F6AE2C">
                        <path d="M138.213297,112.692055 L146.656707,107.817106 C144.433218,103.960483 142.500572,99.941663 140.871114,95.7885314 C129.121251,65.8588797 134.216551,31.940359 154.23189,6.77266742 L146.607302,0.688596589 C143.521206,4.56849244 140.733293,8.66161564 138.275727,12.9253441 C120.458884,43.7905807 120.438074,81.8101052 138.213297,112.692054 Z" id="Segment-20" stroke="#FFFFFF" stroke-width="0.25" transform="translate(139.589969, 56.687853) rotate(28.000000) translate(-139.589969, -56.687853) "></path>
                        <path d="M117,107.914882 L117,211.914882" id="Line-2" stroke="#F6AE2C" stroke-width="10" stroke-linecap="square"></path>
                        <path d="M44.0333588,112.692055 L52.4767689,107.817106 C50.2532805,103.960483 48.3206347,99.941663 46.6911763,95.7885314 C34.9413131,65.8588797 40.0366132,31.940359 60.0519526,6.77266742 L52.4273639,0.688596589 C49.3412684,4.56849244 46.5533549,8.66161564 44.0957892,12.9253441 C26.278946,43.7905807 26.2581361,81.8101052 44.0333594,112.692054 Z" id="Segment-20" stroke="#FFFFFF" stroke-width="0.25" transform="translate(45.410031, 56.687853) scale(-1, 1) rotate(28.000000) translate(-45.410031, -56.687853) "></path>
                        <path d="M0,104.208333 L185,104.208333" id="Line" stroke="#F6AE2C" stroke-width="10" stroke-linecap="square" transform="translate(92.500000, 104.050000) scale(-1, 1) translate(-92.500000, -104.050000) "></path>
                        <path d="M68,107.914882 L68,211.914882" id="Line-2" stroke="#F6AE2C" stroke-width="10" stroke-linecap="square" transform="translate(68.000000, 159.914882) scale(-1, 1) translate(-68.000000, -159.914882) "></path>
                    </g>
                    <g id="Group" fill="#758E4F">
                        <path d="M138.213297,112.692055 L146.656707,107.817106 C144.433218,103.960483 142.500572,99.941663 140.871114,95.7885314 C129.121251,65.8588797 134.216551,31.940359 154.23189,6.77266742 L146.607302,0.688596589 C143.521206,4.56849244 140.733293,8.66161564 138.275727,12.9253441 C120.458884,43.7905807 120.438074,81.8101052 138.213297,112.692054 Z" id="Segment-20" stroke="#FFFFFF" stroke-width="0.25" transform="translate(139.589969, 56.687853) rotate(28.000000) translate(-139.589969, -56.687853) "></path>
                        <path d="M117,107.914882 L117,211.914882" id="Line-2" stroke="#758E4F" stroke-width="10" stroke-linecap="square"></path>
                        <path d="M44.0333588,112.692055 L52.4767689,107.817106 C50.2532805,103.960483 48.3206347,99.941663 46.6911763,95.7885314 C34.9413131,65.8588797 40.0366132,31.940359 60.0519526,6.77266742 L52.4273639,0.688596589 C49.3412684,4.56849244 46.5533549,8.66161564 44.0957892,12.9253441 C26.278946,43.7905807 26.2581361,81.8101052 44.0333594,112.692054 Z" id="Segment-20" stroke="#FFFFFF" stroke-width="0.25" transform="translate(45.410031, 56.687853) scale(-1, 1) rotate(28.000000) translate(-45.410031, -56.687853) "></path>
                        <path d="M0,104.208333 L185,104.208333" id="Line" stroke="#758E4F" stroke-width="10" stroke-linecap="square" transform="translate(92.500000, 104.050000) scale(-1, 1) translate(-92.500000, -104.050000) "></path>
                        <path d="M68,107.914882 L68,211.914882" id="Line-2" stroke="#758E4F" stroke-width="10" stroke-linecap="square" transform="translate(68.000000, 159.914882) scale(-1, 1) translate(-68.000000, -159.914882) "></path>
                    </g>
                </g>
            </g>
        </g>
    </g>
</svg>